<svg width="1200" height="630" viewBox="0 0 1200 630" xmlns="http://www.w3.org/2000/svg">
  <defs>
    <marker id="arrow" viewBox="0 0 10 10" refX="8" refY="5" markerWidth="6" markerHeight="6" orient="auto-start-reverse">
      <path d="M2 1L8 5L2 9" fill="none" stroke="context-stroke" stroke-width="1.5" stroke-linecap="round" stroke-linejoin="round"/>
    </marker>
    <linearGradient id="bg" x1="0" y1="0" x2="1" y2="1">
      <stop offset="0%" stop-color="#0d1117"/>
      <stop offset="100%" stop-color="#161b27"/>
    </linearGradient>
    <linearGradient id="card-renovate" x1="0" y1="0" x2="0" y2="1">
      <stop offset="0%" stop-color="#1e2a3a"/>
      <stop offset="100%" stop-color="#162032"/>
    </linearGradient>
    <linearGradient id="card-git" x1="0" y1="0" x2="0" y2="1">
      <stop offset="0%" stop-color="#1e2433"/>
      <stop offset="100%" stop-color="#171d2e"/>
    </linearGradient>
    <linearGradient id="card-pr" x1="0" y1="0" x2="0" y2="1">
      <stop offset="0%" stop-color="#1e2d24"/>
      <stop offset="100%" stop-color="#162219"/>
    </linearGradient>
    <linearGradient id="glow-blue" x1="0" y1="0" x2="0" y2="1">
      <stop offset="0%" stop-color="#378ADD" stop-opacity="0.15"/>
      <stop offset="100%" stop-color="#378ADD" stop-opacity="0"/>
    </linearGradient>
    <linearGradient id="glow-green" x1="0" y1="0" x2="0" y2="1">
      <stop offset="0%" stop-color="#1D9E75" stop-opacity="0.15"/>
      <stop offset="100%" stop-color="#1D9E75" stop-opacity="0"/>
    </linearGradient>
    <linearGradient id="glow-amber" x1="0" y1="0" x2="0" y2="1">
      <stop offset="0%" stop-color="#EF9F27" stop-opacity="0.15"/>
      <stop offset="100%" stop-color="#EF9F27" stop-opacity="0"/>
    </linearGradient>
    <filter id="soft-glow">
      <feGaussianBlur stdDeviation="8" result="blur"/>
      <feComposite in="SourceGraphic" in2="blur" operator="over"/>
    </filter>
  </defs>

  <!-- Background -->
  <rect width="1200" height="630" fill="url(#bg)"/>

  <!-- Subtle grid lines -->
  <g opacity="0.04" stroke="#c8c6bc" stroke-width="1">
    <line x1="0" y1="105" x2="1200" y2="105"/>
    <line x1="0" y1="210" x2="1200" y2="210"/>
    <line x1="0" y1="315" x2="1200" y2="315"/>
    <line x1="0" y1="420" x2="1200" y2="420"/>
    <line x1="0" y1="525" x2="1200" y2="525"/>
    <line x1="200" y1="0" x2="200" y2="630"/>
    <line x1="400" y1="0" x2="400" y2="630"/>
    <line x1="600" y1="0" x2="600" y2="630"/>
    <line x1="800" y1="0" x2="800" y2="630"/>
    <line x1="1000" y1="0" x2="1000" y2="630"/>
  </g>

  <!-- Ambient glow spots -->
  <ellipse cx="220" cy="315" rx="180" ry="180" fill="#378ADD" opacity="0.04"/>
  <ellipse cx="600" cy="315" rx="200" ry="200" fill="#7F77DD" opacity="0.05"/>
  <ellipse cx="980" cy="315" rx="180" ry="180" fill="#1D9E75" opacity="0.05"/>

  <!-- === CARD 1: Git commit === -->
  <rect x="60" y="195" width="280" height="240" rx="16" fill="url(#card-git)" stroke="#378ADD" stroke-width="1" stroke-opacity="0.4"/>
  <rect x="60" y="195" width="280" height="80" rx="16" fill="url(#glow-blue)"/>
  <rect x="60" y="259" width="280" height="16" fill="url(#glow-blue)" opacity="0.5"/>

  <!-- Git icon circles -->
  <circle cx="122" cy="232" r="12" fill="none" stroke="#378ADD" stroke-width="2" stroke-opacity="0.8"/>
  <circle cx="122" cy="232" r="5" fill="#378ADD" fill-opacity="0.9"/>
  <circle cx="122" cy="280" r="5" fill="#378ADD" fill-opacity="0.7"/>
  <line x1="122" y1="244" x2="122" y2="275" stroke="#378ADD" stroke-width="1.5" stroke-opacity="0.5"/>

  <text font-family='"SF Mono", "Fira Code", monospace' font-size="11" fill="#85B7EB" x="148" y="228">git commit</text>
  <text font-family='"SF Mono", "Fira Code", monospace' font-size="13" fill="#E6F1FB" x="148" y="247" font-weight="600">fix: rotate renovate</text>
  <text font-family='"SF Mono", "Fira Code", monospace' font-size="13" fill="#E6F1FB" x="148" y="263" font-weight="600">PAT token</text>

  <!-- Code lines -->
  <rect x="84" y="300" width="232" height="8" rx="3" fill="#378ADD" fill-opacity="0.12"/>
  <rect x="84" y="316" width="180" height="8" rx="3" fill="#378ADD" fill-opacity="0.08"/>
  <rect x="84" y="332" width="210" height="8" rx="3" fill="#378ADD" fill-opacity="0.10"/>
  <rect x="84" y="348" width="150" height="8" rx="3" fill="#7F77DD" fill-opacity="0.15"/>
  <rect x="84" y="364" width="195" height="8" rx="3" fill="#378ADD" fill-opacity="0.06"/>
  <rect x="84" y="380" width="120" height="8" rx="3" fill="#7F77DD" fill-opacity="0.12"/>

  <text font-family='"SF Mono", "Fira Code", monospace' font-size="10" fill="#85B7EB" opacity="0.6" x="84" y="415">github.com/MrGuato/pi-cluster</text>

  <!-- Card label -->
  <rect x="84" y="162" width="76" height="22" rx="6" fill="#0C447C" fill-opacity="0.8"/>
  <text font-family='"SF Mono", "Fira Code", monospace' font-size="11" fill="#85B7EB" x="122" y="177" text-anchor="middle">git push</text>

  <!-- === ARROW git → renovate === -->
  <line x1="344" y1="315" x2="440" y2="315" stroke="#7F77DD" stroke-width="2" stroke-opacity="0.6" marker-end="url(#arrow)"/>
  <text font-family='"SF Mono", "Fira Code", monospace' font-size="10" fill="#AFA9EC" x="392" y="305" text-anchor="middle" opacity="0.8">@hourly</text>

  <!-- === CARD 2: Renovate CronJob (center, larger) === -->
  <rect x="450" y="155" width="300" height="320" rx="16" fill="#12182a" stroke="#7F77DD" stroke-width="1.5" stroke-opacity="0.7"/>
  <rect x="450" y="155" width="300" height="90" rx="16" fill="#1a1f3a" opacity="0.8"/>
  <rect x="450" y="229" width="300" height="16" fill="#12182a"/>

  <!-- Renovate logo placeholder: wrench + clock -->
  <circle cx="520" cy="200" r="28" fill="#1e254a" stroke="#7F77DD" stroke-width="1.5" stroke-opacity="0.5"/>
  <!-- Clock face -->
  <circle cx="520" cy="200" r="14" fill="none" stroke="#AFA9EC" stroke-width="1.5"/>
  <line x1="520" y1="200" x2="520" y2="190" stroke="#AFA9EC" stroke-width="2" stroke-linecap="round"/>
  <line x1="520" y1="200" x2="527" y2="205" stroke="#7F77DD" stroke-width="2" stroke-linecap="round"/>
  <circle cx="520" cy="200" r="2" fill="#AFA9EC"/>

  <text font-family='"SF Mono", "Fira Code", monospace' font-size="16" fill="#EEEDFE" x="558" y="196" font-weight="700">Renovate</text>
  <text font-family='"SF Mono", "Fira Code", monospace' font-size="11" fill="#AFA9EC" x="558" y="214">CronJob · renovate ns</text>

  <!-- Divider -->
  <line x1="470" y1="245" x2="730" y2="245" stroke="#7F77DD" stroke-width="0.5" stroke-opacity="0.3"/>

  <!-- Scan steps -->
  <circle cx="480" cy="272" r="4" fill="#7F77DD" fill-opacity="0.8"/>
  <text font-family='"SF Mono", "Fira Code", monospace' font-size="12" fill="#CECBF6" x="494" y="276">authenticate github</text>

  <circle cx="480" cy="300" r="4" fill="#7F77DD" fill-opacity="0.8"/>
  <text font-family='"SF Mono", "Fira Code", monospace' font-size="12" fill="#CECBF6" x="494" y="304">scan *.yaml files</text>

  <circle cx="480" cy="328" r="4" fill="#EF9F27" fill-opacity="0.8"/>
  <text font-family='"SF Mono", "Fira Code", monospace' font-size="12" fill="#FAC775" x="494" y="332">renovate/renovate:latest</text>
  <text font-family='"SF Mono", "Fira Code", monospace' font-size="10" fill="#BA7517" x="494" y="347">→  43.96.0 detected</text>

  <circle cx="480" cy="370" r="4" fill="#1D9E75" fill-opacity="0.9"/>
  <text font-family='"SF Mono", "Fira Code", monospace' font-size="12" fill="#9FE1CB" x="494" y="374">open PR</text>

  <!-- SOPS badge -->
  <rect x="470" y="400" width="110" height="24" rx="6" fill="#26215C" stroke="#AFA9EC" stroke-width="0.5" stroke-opacity="0.4"/>
  <text font-family='"SF Mono", "Fira Code", monospace' font-size="10" fill="#AFA9EC" x="525" y="416" text-anchor="middle">SOPS + age</text>

  <!-- FluxCD badge -->
  <rect x="592" y="400" width="90" height="24" rx="6" fill="#26215C" stroke="#AFA9EC" stroke-width="0.5" stroke-opacity="0.4"/>
  <text font-family='"SF Mono", "Fira Code", monospace' font-size="10" fill="#AFA9EC" x="637" y="416" text-anchor="middle">FluxCD</text>

  <!-- Card label -->
  <rect x="474" y="122" width="100" height="22" rx="6" fill="#26215C" fill-opacity="0.9" stroke="#7F77DD" stroke-width="0.5" stroke-opacity="0.5"/>
  <text font-family='"SF Mono", "Fira Code", monospace' font-size="11" fill="#CECBF6" x="524" y="137" text-anchor="middle">concurrencyPolicy:</text>
  <rect x="580" y="122" width="54" height="22" rx="6" fill="#3C3489" fill-opacity="0.9"/>
  <text font-family='"SF Mono", "Fira Code", monospace' font-size="11" fill="#EEEDFE" x="607" y="137" text-anchor="middle">Forbid</text>

  <!-- === ARROW renovate → PR === -->
  <line x1="754" y1="315" x2="852" y2="315" stroke="#1D9E75" stroke-width="2" stroke-opacity="0.7" marker-end="url(#arrow)"/>
  <text font-family='"SF Mono", "Fira Code", monospace' font-size="10" fill="#5DCAA5" x="803" y="305" text-anchor="middle">opens PR</text>

  <!-- === CARD 3: Pull Request === -->
  <rect x="862" y="195" width="278" height="240" rx="16" fill="url(#card-pr)" stroke="#1D9E75" stroke-width="1" stroke-opacity="0.5"/>
  <rect x="862" y="195" width="278" height="80" rx="16" fill="url(#glow-green)"/>
  <rect x="862" y="259" width="278" height="16" fill="url(#card-pr)" opacity="0.5"/>

  <!-- PR icon -->
  <circle cx="910" cy="227" r="8" fill="none" stroke="#1D9E75" stroke-width="2" stroke-opacity="0.8"/>
  <circle cx="910" cy="247" r="8" fill="none" stroke="#1D9E75" stroke-width="2" stroke-opacity="0.8"/>
  <path d="M910 235 C910 237 918 237 918 240 L918 247" fill="none" stroke="#1D9E75" stroke-width="1.5" stroke-opacity="0.6"/>
  <circle cx="910" cy="227" r="3" fill="#1D9E75" fill-opacity="0.9"/>
  <circle cx="910" cy="247" r="3" fill="#1D9E75" fill-opacity="0.9"/>

  <!-- PR badge -->
  <rect x="928" y="214" width="40" height="18" rx="8" fill="#085041" stroke="#1D9E75" stroke-width="1" stroke-opacity="0.6"/>
  <text font-family='"SF Mono", "Fira Code", monospace' font-size="10" fill="#9FE1CB" x="948" y="226" text-anchor="middle">open</text>

  <text font-family='"SF Mono", "Fira Code", monospace' font-size="12" fill="#E1F5EE" x="928" y="242" font-weight="600">chore(deps): update</text>
  <text font-family='"SF Mono", "Fira Code", monospace' font-size="12" fill="#9FE1CB" x="928" y="258">renovate to 43.97.0</text>

  <!-- Diff lines -->
  <rect x="884" y="275" width="232" height="8" rx="3" fill="#1D9E75" fill-opacity="0.08"/>
  <text font-family='"SF Mono", "Fira Code", monospace' font-size="10" fill="#E24B4A" x="884" y="282">- image: renovate/renovate:43.96.0</text>
  <rect x="884" y="291" width="232" height="8" rx="3" fill="#1D9E75" fill-opacity="0.15"/>
  <text font-family='"SF Mono", "Fira Code", monospace' font-size="10" fill="#1D9E75" x="884" y="298">+ image: renovate/renovate:43.97.0</text>

  <line x1="884" y1="312" x2="1116" y2="312" stroke="#1D9E75" stroke-width="0.5" stroke-opacity="0.2"/>

  <text font-family='"SF Mono", "Fira Code", monospace' font-size="10" fill="#5DCAA5" x="884" y="330" opacity="0.7">1 file changed, 1 insertion(+), 1 deletion(-)</text>
  <text font-family='"SF Mono", "Fira Code", monospace' font-size="10" fill="#5DCAA5" x="884" y="346" opacity="0.5">automated by renovate-bot</text>

  <text font-family='"SF Mono", "Fira Code", monospace' font-size="10" fill="#5DCAA5" x="884" y="380" opacity="0.4">github.com/MrGuato/pi-cluster</text>

  <!-- Card label -->
  <rect x="886" y="162" width="130" height="22" rx="6" fill="#085041" fill-opacity="0.8" stroke="#1D9E75" stroke-width="0.5" stroke-opacity="0.5"/>
  <text font-family='"SF Mono", "Fira Code", monospace' font-size="11" fill="#9FE1CB" x="951" y="177" text-anchor="middle">github.com · PR #42</text>

  <!-- === Bottom label === -->
  <text font-family='"SF Mono", "Fira Code", monospace' font-size="11" fill="#444441" x="600" y="570" text-anchor="middle" letter-spacing="4">GITOPS · K3S · RASPBERRY PI · FLUXCD · SOPS</text>

  <!-- === Title === -->
  <text font-family='"SF Mono", "Fira Code", monospace' font-size="28" fill="#EEEDFE" x="600" y="95" text-anchor="middle" font-weight="700" letter-spacing="-0.5">Shipping Renovate Bot to a FluxCD Homelab</text>
  <text font-family='"SF Mono", "Fira Code", monospace' font-size="13" fill="#7F77DD" x="600" y="120" text-anchor="middle" opacity="0.8">automated dependency updates · SOPS-encrypted secrets · GitOps CronJob</text>

  <!-- Decorative dots top right -->
  <circle cx="1140" cy="60" r="3" fill="#7F77DD" opacity="0.4"/>
  <circle cx="1158" cy="60" r="3" fill="#7F77DD" opacity="0.25"/>
  <circle cx="1140" cy="78" r="3" fill="#7F77DD" opacity="0.25"/>
  <circle cx="1158" cy="78" r="3" fill="#7F77DD" opacity="0.15"/>

  <!-- Decorative dots bottom left -->
  <circle cx="42" cy="552" r="3" fill="#378ADD" opacity="0.3"/>
  <circle cx="60" cy="552" r="3" fill="#378ADD" opacity="0.2"/>
  <circle cx="42" cy="570" r="3" fill="#378ADD" opacity="0.2"/>
  <circle cx="60" cy="570" r="3" fill="#378ADD" opacity="0.1"/>
</svg>
