<svg width="1200" height="630" viewBox="0 0 680 360" xmlns="http://www.w3.org/2000/svg">
  <style>.mono{font-family:'Courier New',Courier,monospace}</style>

  <rect width="680" height="360" fill="#0d1117"/>

  <rect x="48" y="68" width="4" height="198" rx="2" fill="#f6821f"/>

  <text x="64" y="91" class="mono" font-size="11" fill="#f6821f" font-weight="600" letter-spacing="2">HOMELAB · KUBERNETES</text>

  <text x="64" y="152" class="mono" font-size="44" fill="#f0f6fc" font-weight="700">Deploying</text>
  <text x="64" y="207" class="mono" font-size="44" fill="#f6821f" font-weight="700">Vikunja</text>

  <text x="64" y="240" class="mono" font-size="15" fill="#8b949e">on Raspberry Pi · k3s · FluxCD</text>

  <line x1="64" y1="260" x2="375" y2="260" stroke="#1e2d3d" stroke-width="1"/>

  <rect x="64" y="272" width="68" height="24" rx="4" fill="#0d1b2e" stroke="#1e3a5f" stroke-width="1"/>
  <text x="98" y="288" class="mono" font-size="11" fill="#58a6ff" text-anchor="middle">FluxCD</text>

  <rect x="140" y="272" width="78" height="24" rx="4" fill="#1a0d2e" stroke="#3d1a6b" stroke-width="1"/>
  <text x="179" y="288" class="mono" font-size="11" fill="#a371f7" text-anchor="middle">SOPS + age</text>

  <rect x="226" y="272" width="82" height="24" rx="4" fill="#2e1a0d" stroke="#6b3d1a" stroke-width="1"/>
  <text x="267" y="288" class="mono" font-size="11" fill="#f6821f" text-anchor="middle">Cloudflare</text>

  <rect x="316" y="272" width="58" height="24" rx="4" fill="#0d2e1a" stroke="#1a5c35" stroke-width="1"/>
  <text x="345" y="288" class="mono" font-size="11" fill="#3fb950" text-anchor="middle">ARM64</text>

  <text x="64" y="336" class="mono" font-size="12" fill="#3a4452">github.com/MrGuato/pi-cluster</text>

  <line x1="422" y1="48" x2="422" y2="312" stroke="#1e2d3d" stroke-width="1" stroke-dasharray="4,4"/>

  <path d="M582,48 A88,88 0 0,1 648,118" fill="none" stroke="#f6821f" stroke-width="2" opacity="0.22"/>
  <path d="M604,48 A66,66 0 0,1 648,102" fill="none" stroke="#f6821f" stroke-width="1" opacity="0.14"/>

  <polygon points="628,162 596,218 532,218 500,162 532,106 596,106" fill="none" stroke="#326ce5" stroke-width="1.5" opacity="0.45"/>

  <circle cx="564" cy="162" r="24" fill="#0d1117" stroke="#326ce5" stroke-width="2" opacity="0.85"/>
  <text x="564" y="167" class="mono" font-size="10" fill="#326ce5" text-anchor="middle" font-weight="700">k8s</text>

  <line x1="588" y1="162" x2="609" y2="162" stroke="#326ce5" stroke-width="1" opacity="0.55"/>
  <line x1="576" y1="183" x2="585" y2="200" stroke="#326ce5" stroke-width="1" opacity="0.55"/>
  <line x1="552" y1="183" x2="543" y2="200" stroke="#326ce5" stroke-width="1" opacity="0.55"/>
  <line x1="540" y1="162" x2="519" y2="162" stroke="#326ce5" stroke-width="1" opacity="0.55"/>
  <line x1="552" y1="141" x2="543" y2="124" stroke="#326ce5" stroke-width="1" opacity="0.55"/>
  <line x1="576" y1="141" x2="585" y2="124" stroke="#326ce5" stroke-width="1" opacity="0.55"/>

  <circle cx="620" cy="162" r="11" fill="#0d1117" stroke="#326ce5" stroke-width="1.5"/>
  <circle cx="592" cy="211" r="11" fill="#0d1117" stroke="#f6821f" stroke-width="1.5"/>
  <circle cx="536" cy="211" r="11" fill="#0d1117" stroke="#3fb950" stroke-width="1.5"/>
  <circle cx="508" cy="162" r="11" fill="#0d1117" stroke="#326ce5" stroke-width="1.5"/>
  <circle cx="536" cy="113" r="11" fill="#0d1117" stroke="#a371f7" stroke-width="1.5"/>
  <circle cx="592" cy="113" r="11" fill="#0d1117" stroke="#f6821f" stroke-width="1.5"/>

  <rect x="510" y="272" width="56" height="48" rx="3" fill="#0d1117" stroke="#c51a4a" stroke-width="1.5"/>
  <rect x="516" y="278" width="44" height="36" rx="2" fill="#120508"/>
  <text x="538" y="295" class="mono" font-size="9" fill="#c51a4a" text-anchor="middle">BCM2711</text>
  <text x="538" y="308" class="mono" font-size="8" fill="#c51a4a" text-anchor="middle" opacity="0.6">ARM64 · 8GB</text>

  <line x1="510" y1="283" x2="502" y2="283" stroke="#c51a4a" stroke-width="1" opacity="0.5"/>
  <line x1="510" y1="291" x2="502" y2="291" stroke="#c51a4a" stroke-width="1" opacity="0.5"/>
  <line x1="510" y1="299" x2="502" y2="299" stroke="#c51a4a" stroke-width="1" opacity="0.5"/>
  <line x1="510" y1="307" x2="502" y2="307" stroke="#c51a4a" stroke-width="1" opacity="0.5"/>
  <line x1="566" y1="283" x2="574" y2="283" stroke="#c51a4a" stroke-width="1" opacity="0.5"/>
  <line x1="566" y1="291" x2="574" y2="291" stroke="#c51a4a" stroke-width="1" opacity="0.5"/>
  <line x1="566" y1="299" x2="574" y2="299" stroke="#c51a4a" stroke-width="1" opacity="0.5"/>
  <line x1="566" y1="307" x2="574" y2="307" stroke="#c51a4a" stroke-width="1" opacity="0.5"/>

  <path d="M538,272 L538,242 L564,242 L564,186" fill="none" stroke="#c51a4a" stroke-width="0.8" opacity="0.32" stroke-dasharray="3,3"/>
</svg>
